<svg width="174" height="46" viewBox="0 0 174 46" fill="none" xmlns="http://www.w3.org/2000/svg">
<path d="M14.2196 7.92588C18.9451 6.336 19.252 0.465668 14.6492 0.465668C13.3604 0.465668 11.8261 1.3829 10.7828 3.15623L4.52294 13.9796C4.21608 14.4688 3.9706 14.8969 3.60237 15.3249C2.00672 13.1235 2.43632 9.82149 4.70705 8.35391L3.78648 7.19208C-1.1232 10.3107 0.349703 19.2385 8.51205 19.2385C15.447 19.2385 18.6996 10.9222 14.2196 7.92588ZM8.45068 17.4651C7.03914 17.4651 5.99584 17.1594 5.07527 16.6702C5.50487 16.181 5.8731 15.6307 6.24132 15.0192L10.1691 8.23162L10.7828 8.29276C16.2448 9.45459 14.0968 17.4651 8.45068 17.4651ZM10.9669 6.88633L12.8694 3.64543C14.5878 0.710272 16.7358 2.42243 15.5697 4.62381C14.6492 6.33598 13.3604 6.82518 10.9669 6.88633Z" fill="white"/>
<path d="M33.9196 15.4482C33.5514 16.7935 34.2878 17.9553 35.8221 17.9553C36.7427 17.9553 37.9087 17.3439 39.0748 16.4266C39.1975 17.3439 39.9339 17.9553 41.1 17.9553C42.3274 17.9553 43.6776 17.0993 45.0278 15.8763C44.7823 17.0993 45.3346 17.9553 46.5007 17.9553C47.7894 17.9553 49.201 16.7935 50.3057 15.754C50.0602 16.977 50.7966 17.9553 52.2695 17.9553C54.172 17.9553 56.3814 15.8763 58.3453 13.6749C58.3453 13.6138 58.2839 13.6137 58.2839 13.5526C59.5727 12.085 60.6774 10.4951 61.5366 9.39446C60.616 11.7793 61.107 16.1209 58.8976 16.1209C58.0998 16.1209 57.7929 15.2648 57.7929 15.2648L56.32 15.9986C56.32 15.9986 56.7496 17.8942 58.8976 17.8942C59.1431 17.8942 59.3272 17.8942 59.5727 17.833H59.6341C61.3525 17.5884 63.0095 16.5489 64.4824 15.2648C64.5437 16.7935 65.7098 17.8942 67.6123 17.8942C70.2513 17.8942 72.8902 15.8151 74.7927 13.6138C74.6086 13.308 74.2404 12.9411 73.9335 12.8188L73.7494 13.0023C72.0924 14.959 69.9444 16.4878 68.2874 16.4878C66.8758 16.4878 66.0166 15.5705 67.06 13.7361L67.3054 13.308C68.7784 13.9195 71.6014 13.6138 73.3812 10.6174L73.688 10.0671C74.9155 7.92688 73.7494 6.337 71.8469 6.337C69.9444 6.337 68.4715 7.31538 67.4896 9.02756L65.2188 12.88H65.1575L64.9733 13.0634C64.1142 14.0418 63.0708 14.959 62.1503 15.5705C62.8867 13.3692 62.7026 9.94481 64.1755 7.00965L62.4571 6.09241C61.4752 7.43769 59.3886 10.434 57.302 12.88L57.3633 12.9411L57.302 13.0634C55.6449 15.0202 53.9879 16.5489 52.9446 16.5489C52.4536 16.5489 52.1468 16.182 52.6991 15.2648L57.6702 6.58159H55.3381L51.2262 13.7972C49.4465 15.3871 48.0963 16.3043 47.6667 16.1209C47.1144 15.8763 47.6667 15.0202 47.9736 14.531L52.515 6.64275H50.1829L46.5007 13.0023C46.4393 12.9411 46.3779 12.9411 46.3165 12.88L46.1324 13.0634C44.4754 15.0202 42.8184 16.5489 41.7751 16.5489C41.2841 16.5489 40.9773 16.182 41.5296 15.2648L45.2732 8.72182H43.9231C43.9844 7.74343 43.0025 6.39815 41.4682 6.39815C40.2408 6.39815 38.461 7.37654 37.4791 9.08871L35.147 13.1246C35.0243 13.0023 34.9015 12.9411 34.7788 12.88L34.5947 13.0634C32.9377 15.0202 30.7897 16.5489 29.1326 16.5489C27.7211 16.5489 26.8619 15.6317 27.9052 13.7972L30.2987 9.63905C31.6489 7.31538 34.0423 7.74342 32.6308 10.1282L32.3239 10.6786H34.2264L34.5333 10.1282C35.7607 7.98802 34.5947 6.39815 32.6922 6.39815C30.7897 6.39815 29.3168 7.37654 28.3348 9.08871L26.0027 13.0634C25.9414 13.0023 25.88 13.0023 25.8186 12.9411L25.6345 13.1246C23.9775 15.0813 21.8295 16.6101 20.1725 16.6101C18.7609 16.6101 17.9017 15.6928 18.9451 13.8583L19.1905 13.4303C20.6634 14.0418 23.4865 13.736 25.2663 10.7397L25.5731 10.1894C26.8005 8.04917 25.6345 6.45929 23.732 6.45929C21.8295 6.45929 20.3566 7.43769 19.3746 9.14987L16.9198 13.308C15.4469 15.754 16.7357 18.0776 19.4974 18.0776C21.5226 18.0776 23.6092 16.8547 25.2663 15.2648C25.2049 16.8547 26.4323 18.0776 28.3962 18.0776C30.3601 17.9553 32.2626 16.8547 33.9196 15.4482ZM69.5148 9.5779C70.865 7.25423 73.2584 7.68229 71.8469 10.0671L71.54 10.6174C70.4354 12.5131 68.9011 12.4519 68.0419 12.1462L69.5148 9.5779ZM36.2517 15.2648L39.5044 9.63905C40.7318 7.49883 43.248 8.04917 42.0819 10.1282L40.2408 13.308C38.8293 15.5094 37.4177 16.5489 36.4972 16.5489C36.0062 16.4878 35.6993 16.182 36.2517 15.2648ZM21.3999 9.5779C22.7501 7.25423 25.1435 7.68229 23.732 10.0671L23.4251 10.6174C22.3205 12.5131 20.7862 12.4519 19.927 12.1462L21.3999 9.5779Z" fill="white"/>
<path d="M100.323 17.954C102.962 17.954 105.601 15.8749 107.503 13.6736C107.319 13.3678 106.951 13.0009 106.644 12.8786L106.46 13.0621C104.803 15.0189 102.655 16.5476 100.998 16.5476C99.5866 16.5476 98.7274 15.6303 99.7707 13.7959L100.016 13.3678C101.489 13.9793 104.312 13.6736 106.092 10.6773L106.399 10.1269C107.626 7.98668 106.46 6.39682 104.558 6.39682C102.655 6.39682 101.182 7.3752 100.2 9.08738L97.9296 12.9398C97.9296 12.9398 97.8682 12.9398 97.8682 12.8786L97.6841 13.0621C96.0271 15.0189 94.37 16.5476 93.3267 16.5476C92.8358 16.5476 92.5289 16.1807 93.0812 15.2635L96.4567 9.39312C97.4386 7.6198 96.518 6.33566 95.2292 6.33566C94.2473 6.33566 93.1426 6.886 91.9766 8.10899L95.7202 1.68832H93.3267L86.76 13.0009C86.6987 12.9398 86.5759 12.8786 86.5145 12.8175L86.3304 13.0009C84.6734 14.9577 83.0164 16.4864 81.9731 16.4864C81.4821 16.4864 81.1753 16.1195 81.7276 15.2023L86.6986 6.5191H88.6012L89.2762 5.41843H87.3737L89.5831 1.62717H87.251L85.0416 5.41843H82.955L82.2799 6.5191H84.4279L79.7637 14.5908C78.7818 16.303 79.4569 17.8929 81.3594 17.8929C82.5254 17.8929 83.7528 17.1591 85.0416 16.0584L84.1211 17.6483H86.4532L90.0127 11.5333C93.5722 7.06945 95.1679 7.61979 94.1859 9.33197L91.1787 14.5908C90.1968 16.303 90.8719 17.8929 92.7744 17.8929C94.1859 17.8929 95.7816 16.7922 97.2545 15.3246C97.2545 16.8533 98.4205 17.954 100.323 17.954ZM102.226 9.57656C103.576 7.25289 105.969 7.68095 104.558 10.0658L104.251 10.6161C103.146 12.5117 101.612 12.4506 100.753 12.1448L102.226 9.57656Z" fill="white"/>
<path d="M170.9 12.8791L170.716 13.0626C169.059 15.0193 167.402 16.548 166.358 16.548C165.867 16.548 165.561 16.1812 166.113 15.2639L173.968 1.6888H171.636L168.199 7.55913C167.77 6.88649 167.033 6.33614 166.051 6.33614C164.824 6.33614 163.044 7.31453 162.062 9.0267L159.792 12.9402C159.73 12.9402 159.669 12.8791 159.669 12.8791L159.485 13.0626C157.828 15.0193 156.171 16.548 155.127 16.548C154.636 16.548 154.33 16.1812 154.882 15.2639L158.257 9.3936C159.239 7.62028 158.319 6.33614 157.03 6.33614C156.048 6.33614 154.943 6.88648 153.777 8.04831L154.636 6.51958H152.304L148.561 12.9402C148.499 12.8791 148.438 12.818 148.315 12.818L148.131 13.0014C146.474 14.9582 144.817 16.4869 143.774 16.4869C143.283 16.4869 142.976 16.12 143.528 15.2028L147.272 8.65981H146.106C146.167 7.68142 145.185 6.33614 143.651 6.33614C142.424 6.33614 140.644 7.31453 139.662 9.0267L137.391 12.8791L137.268 13.0014C135.611 14.9582 133.954 16.4869 132.911 16.4869C132.42 16.4869 132.113 16.12 132.666 15.2028L134.998 11.1669C135.796 9.7605 135.427 8.96555 134.691 8.04831L133.402 6.45843C133.095 6.03039 133.095 5.5412 133.525 5.11316L132.297 3.76787C130.947 4.9297 130.886 6.275 131.684 7.31453L131.868 7.55913C130.824 9.02671 129.474 10.9835 127.94 12.7568C128.001 12.818 128.063 12.8791 128.124 12.9402C126.222 15.1416 124.565 16.5481 122.724 17.343L125.669 12.3288H123.399L123.153 12.7568C121.926 14.897 120.514 16.4869 118.673 16.4869C117.077 16.4869 116.771 14.897 118.182 12.5122L118.857 11.3504C119.287 11.4115 119.716 11.4727 120.207 11.4727C128.492 11.4727 132.482 0.404663 125.178 0.404663C123.89 0.404663 122.355 1.3219 121.312 3.09522L117.691 9.33245C116.341 8.59866 115.604 7.31453 115.604 6.0304C115.604 4.92971 116.095 3.89016 117.077 3.09522L116.341 1.74995C114.684 2.91179 113.947 4.50167 113.947 6.09155C113.947 7.92603 114.991 9.69935 116.893 10.6777L116.218 11.9007C114.561 14.7136 114.868 17.8322 118.182 17.8322C119.164 17.8322 120.023 17.5265 120.698 17.0984L120.085 18.1379C116.955 19.1163 114.991 20.3393 114.991 22.1126C114.991 24.314 118.428 24.8032 120.085 21.9292L121.864 18.8717C124.258 18.1379 126.651 16.4869 129.229 13.4906C129.167 13.4294 129.167 13.3683 129.106 13.246C130.149 12.023 131.009 10.8612 132.788 8.47637L133.095 8.84326C133.402 9.21016 133.525 9.69934 133.218 10.1885L130.763 14.469C129.781 16.1812 130.456 17.771 132.359 17.771C133.525 17.771 134.814 17.0372 136.041 15.9366C136.041 16.9761 136.716 17.771 138.066 17.771C138.987 17.771 140.153 17.1595 141.319 16.2423C141.442 17.1595 142.178 17.771 143.344 17.771C144.449 17.771 145.676 17.0984 146.842 16.0589L145.983 17.5264H148.315L151.875 11.3504C155.434 6.88647 157.03 7.49797 155.987 9.21014L152.979 14.469C151.998 16.1812 152.673 17.771 154.575 17.771C155.802 17.771 157.153 16.915 158.503 15.7531C158.38 16.915 159.117 17.771 160.528 17.771C161.449 17.771 162.615 17.1595 163.781 16.2423C163.903 17.1595 164.64 17.771 165.806 17.771C167.708 17.771 169.918 15.692 171.882 13.4906C171.636 13.3683 171.207 13.0014 170.9 12.8791ZM123.092 4.19592C123.767 3.03409 124.565 2.48373 125.178 2.48373C128.861 2.48373 126.283 10.0051 120.207 10.0051H119.716L123.092 4.19592ZM118.121 21.6846C117.63 22.5407 116.832 22.4184 116.832 21.8069C116.832 21.1954 117.384 20.5228 119.164 19.8501L118.121 21.6846ZM142.485 13.246C141.073 15.4474 139.662 16.4869 138.741 16.4869C138.25 16.4869 137.944 16.12 138.496 15.2028L141.749 9.57704C142.976 7.43682 145.492 7.98718 144.326 10.0662L142.485 13.246ZM165.008 13.1237C163.597 15.4474 162.185 16.4869 161.203 16.4869C160.712 16.4869 160.405 16.12 160.958 15.2028L164.21 9.57704C165.438 7.43682 167.954 7.98718 166.788 10.0662L165.008 13.1237Z" fill="white"/>
<path d="M93.1427 34.8925L92.9586 35.076C91.3016 37.0328 89.6446 38.5615 88.6013 38.5615C88.1103 38.5615 87.8034 38.1946 88.3558 37.2774L91.7312 31.407C92.7131 29.6337 91.7925 28.3496 90.5038 28.3496C89.5218 28.3496 88.4171 28.8999 87.2511 30.0617L88.1103 28.533H85.7782L82.0346 35.0148C81.9118 34.9537 81.8504 34.8925 81.7277 34.8314L81.5436 35.0148C80.5003 36.1767 79.2115 36.727 78.0454 36.727L80.2548 32.9358C81.6663 30.4898 80.3775 28.2273 78.1682 28.2273C76.3884 28.2273 74.9769 28.9611 73.6267 31.2847L72.4607 33.2415L71.4787 34.9537C71.4174 34.8925 71.356 34.8925 71.2946 34.8314L71.1105 35.0148C69.208 37.2162 67.551 38.6226 65.7098 39.4176L72.0924 28.533H69.7603L65.6485 35.6875C63.8687 37.3385 62.4572 38.2557 62.0276 38.0723C61.4752 37.8277 62.0276 36.9716 62.3344 36.4824L66.8759 28.5942H64.5438L60.8002 35.0148C60.7388 34.9537 60.6774 34.9537 60.6161 34.8925L60.4319 35.076C58.7749 37.0328 57.1179 38.5615 56.0746 38.5615C55.5836 38.5615 55.2768 38.1946 55.8291 37.2774L59.2045 31.407C60.1865 29.6337 59.2659 28.3496 57.9771 28.3496C56.9952 28.3496 55.8905 28.8999 54.7244 30.0617L55.5836 28.533H53.2515L49.5079 34.9537C49.4465 34.8925 49.3851 34.8314 49.2624 34.8314L49.0783 35.0148C47.4213 36.9716 45.7643 38.5003 44.721 38.5003C44.23 38.5003 43.9231 38.1334 44.4755 37.2162L48.2191 30.6732H46.8689C46.9303 29.6949 45.9484 28.3496 44.4141 28.3496C43.1867 28.3496 41.4069 29.328 40.425 31.0401L38.0315 35.1983C37.8474 35.076 37.6633 34.9537 37.5405 34.8925L37.3564 35.076C35.6994 37.0328 33.6128 38.5615 31.3421 38.5615C29.7464 38.5615 28.7645 36.9716 30.176 34.5868L30.8511 33.425C31.2807 33.4861 31.7103 33.5473 32.2013 33.5473C34.6561 33.5473 37.4792 32.2631 39.3203 29.0834C39.9954 27.9215 40.2409 26.882 40.2409 25.9648C40.2409 23.8857 38.8907 22.4792 37.1723 22.4792C35.8835 22.4792 34.3492 23.3965 33.3059 25.1698L29.685 31.407C28.3349 30.6732 27.5984 29.3891 27.5984 28.105C27.5984 27.0043 28.0894 25.9647 29.0713 25.1698L28.3349 23.8245C26.6779 24.9864 25.9414 26.5762 25.9414 28.1661C25.9414 30.0006 26.9847 31.7739 28.8872 32.7523L28.2121 33.9753C26.5551 36.7882 27.5371 39.9068 30.8511 39.9068C33.4287 39.9068 35.3925 38.7449 36.9882 37.2162C36.4972 38.6838 37.2337 39.9068 38.8907 39.9068C39.8113 39.9068 40.9773 39.2953 42.1434 38.378C42.2661 39.2953 43.0026 39.9068 44.1686 39.9068C45.2733 39.9068 46.5007 39.2341 47.6668 38.1946L46.8076 39.6622H49.1397L52.6992 33.4861C56.2587 29.0222 57.8544 29.6337 56.811 31.3459L53.8039 36.6047C52.8219 38.3169 53.497 39.9068 55.3995 39.9068C56.6269 39.9068 58.0385 39.0507 59.3886 37.8277C59.0818 39.1118 59.6955 39.9068 60.8615 39.9068C61.9662 39.9068 63.255 38.9895 64.2983 38.0111L63.0095 40.2125C59.8796 41.1298 57.8544 42.4139 57.8544 44.1872C57.8544 46.3886 61.2911 46.8778 62.9482 44.0038L64.7279 40.9463C66.6918 40.3348 68.5943 39.1118 70.6195 37.1551C70.3127 40.396 74.6087 41.1298 77.2476 37.8277H77.7386C78.5978 37.8277 79.7638 37.522 80.8071 36.9105L79.2729 39.601H81.6049L85.1645 33.425C88.724 28.9611 90.3196 29.5726 89.2763 31.2847L86.2692 36.5436C85.2872 38.2557 85.9623 39.8456 87.8648 39.8456C89.7673 39.8456 91.9767 37.7665 93.9405 35.5652C93.8792 35.3817 93.4496 35.0148 93.1427 34.8925ZM35.2084 26.2094C35.8835 25.0475 36.6813 24.4972 37.2951 24.4972C38.1542 24.4972 38.5838 25.0475 38.5838 25.9036C38.5838 28.0438 35.9449 31.9574 32.324 31.9574H31.833L35.2084 26.2094ZM43.4322 35.2594C42.0206 37.4608 40.6091 38.5003 39.6885 38.5003C39.1976 38.5003 38.8907 38.1334 39.443 37.2162L42.6957 31.5905C43.9231 29.4503 46.4393 30.0006 45.2733 32.0797L43.4322 35.2594ZM61.107 43.698C60.6161 44.5541 59.8182 44.4318 59.8182 43.8203C59.8182 43.2088 60.3706 42.5362 62.1503 41.8636L61.107 43.698ZM76.818 35.0148H76.6953C75.9588 35.0148 75.3451 35.6263 75.3451 36.4213C75.3451 36.727 75.4065 36.9716 75.5906 37.2162V37.2774C74.4859 39.173 71.847 38.8061 73.1971 36.3601L74.9769 33.3027L76.0816 31.407C77.7386 28.6553 79.9479 29.756 78.5364 32.1408L76.818 35.0148Z" fill="white"/>
<path d="M147.088 35.6884C146.965 35.3215 146.536 34.9546 146.229 34.8935L146.045 35.0769C145.185 36.0553 144.142 36.9726 143.221 37.5841C143.958 35.3827 143.774 31.9583 145.247 29.0232L143.528 28.1059C142.546 29.4512 140.46 32.4475 138.373 34.8935L138.189 35.0769C136.532 37.0337 134.875 38.5624 133.832 38.5624C133.341 38.5624 132.85 38.0733 132.85 36.9726V35.9942C134.507 36.1776 136.225 35.1381 137.33 33.2425L137.944 32.1418C140.092 28.4117 136.593 27.1887 134.2 29.3901L137.514 23.642H135.182L128.554 35.1381C128.431 35.0158 128.247 34.8935 128.124 34.8323L127.94 35.0158C126.283 36.9726 124.135 38.5013 122.478 38.5013C121.067 38.5013 120.207 37.5841 121.251 35.7496L123.644 31.5914C124.994 29.2678 127.388 29.6958 125.976 32.0806L125.669 32.631H127.572L127.879 32.0806C129.106 29.9404 127.94 28.3505 126.038 28.3505C124.135 28.3505 122.662 29.3289 121.68 31.0411L119.409 34.9546C119.348 34.9546 119.287 34.8935 119.287 34.8935L119.103 35.0769C117.446 37.0337 115.789 38.5624 114.745 38.5624C114.254 38.5624 113.947 38.1956 114.5 37.2783L119.471 28.5951H117.139L113.027 35.8107C111.247 37.4006 109.897 38.3178 109.467 38.1344C108.915 37.8898 109.467 37.0337 109.774 36.5445L114.316 28.6563H111.984L107.442 36.4222C106.951 36.8503 106.399 37.2783 105.969 37.6452C106.706 35.4438 106.522 32.0195 107.994 29.0843L106.276 28.1671C105.294 29.5123 99.9549 36.6057 97.8069 39.0516C97.991 39.3574 98.3592 39.602 98.6661 39.8466C100.016 38.3178 104.435 32.631 105.233 31.5303C104.312 33.9151 104.803 38.2567 102.594 38.2567C101.796 38.2567 101.489 37.4006 101.489 37.4006L100.016 38.1344C100.016 38.1344 100.446 40.03 102.594 40.03C102.839 40.03 103.023 40.03 103.269 39.9689H103.33C104.496 39.7854 105.662 39.2962 106.767 38.5013C106.767 39.4185 107.319 40.03 108.301 40.03C109.59 40.03 111.002 38.8682 112.106 37.8287C111.861 39.0516 112.597 40.03 114.07 40.03C115.543 40.03 117.139 38.8682 118.673 37.3394C118.673 38.8682 119.9 40.03 121.803 40.03C123.705 40.03 125.547 38.9905 127.204 37.5841L125.915 39.8466H128.247L130.886 35.2604V37.0949C130.886 39.0516 131.254 40.0912 133.157 40.0912C135.059 40.0912 137.268 38.0121 139.232 35.8107C140.583 34.282 141.687 32.6921 142.546 31.5914C141.626 33.9762 142.117 38.3178 139.907 38.3178C139.11 38.3178 138.803 37.4618 138.803 37.4618L137.33 38.1956C137.33 38.1956 137.759 40.0912 139.907 40.0912C140.153 40.0912 140.337 40.0912 140.583 40.03H140.644C142.976 39.602 145.369 37.7064 147.088 35.6884ZM131.622 33.854L132.297 32.6921C134.998 28.962 136.839 30.0016 135.98 31.408L134.875 33.3036C134.2 34.5266 132.175 35.3827 131.622 33.854Z" fill="white"/>
<path d="M147.026 37.2781C146.29 37.2781 145.676 37.8896 145.676 38.6233C145.676 39.3571 146.229 39.9686 147.026 39.9686C147.763 39.9686 148.377 39.4183 148.377 38.6233C148.377 37.8896 147.763 37.2781 147.026 37.2781Z" fill="white"/>
<path d="M147.149 36.3602H149.481L156.785 23.7023H154.452L147.149 36.3602Z" fill="white"/>
</svg>
